<svg width="14" height="15" viewBox="0 0 14 15" fill="none" xmlns="http://www.w3.org/2000/svg">
<path d="M7.06841 5.30596C5.69607 5.30596 4.58455 6.4133 4.58455 7.78046C4.58455 9.14763 5.69607 10.255 7.06841 10.255C8.44074 10.255 9.55226 9.14763 9.55226 7.78046C9.55226 6.4133 8.44074 5.30596 7.06841 5.30596ZM12.6198 7.16184C12.3342 4.58217 10.2788 2.53452 7.68937 2.24995V1.59421C7.68937 1.25397 7.40994 0.975586 7.06841 0.975586C6.72687 0.975586 6.44744 1.25397 6.44744 1.59421V2.24995C3.85802 2.53452 1.80262 4.58217 1.51698 7.16184H0.858758C0.517227 7.16184 0.237793 7.44022 0.237793 7.78046C0.237793 8.12071 0.517227 8.39909 0.858758 8.39909H1.51698C1.80262 10.9788 3.85802 13.0264 6.44744 13.311V13.9667C6.44744 14.307 6.72687 14.5853 7.06841 14.5853C7.40994 14.5853 7.68937 14.307 7.68937 13.9667V13.311C10.2788 13.0264 12.3342 10.9788 12.6198 8.39909H13.2781C13.6196 8.39909 13.899 8.12071 13.899 7.78046C13.899 7.44022 13.6196 7.16184 13.2781 7.16184H12.6198ZM7.06841 12.1108C4.66527 12.1108 2.72165 10.1745 2.72165 7.78046C2.72165 5.38638 4.66527 3.45009 7.06841 3.45009C9.47154 3.45009 11.4152 5.38638 11.4152 7.78046C11.4152 10.1745 9.47154 12.1108 7.06841 12.1108Z" fill="black" fill-opacity="0.3"/>
</svg>
